<svg xmlns="http://www.w3.org/2000/svg" width="17" height="17" viewBox="0 0 17 17" fill="none">
  <path d="M9.67272 8.3941C10.0208 8.43123 10.3728 8.38968 10.7027 8.27252C11.0327 8.15536 11.332 7.9656 11.5788 7.71723L15.3445 3.95143C15.7829 3.51663 16.0309 2.92572 16.0341 2.30832C16.0376 2.00435 15.9802 1.70278 15.8652 1.42137C15.7503 1.13995 15.5802 0.884402 15.3649 0.669776C15.1524 0.456389 14.8997 0.287306 14.6214 0.172336C14.3431 0.0573648 14.0448 -0.00120643 13.7436 1.88333e-05H13.7269C13.1097 0.0035204 12.519 0.251488 12.0843 0.689609L8.31846 4.4554C8.04501 4.72731 7.84301 5.06259 7.73042 5.43141C7.61783 5.80023 7.59814 6.19117 7.67311 6.56943C7.69111 6.6362 7.73381 6.69363 7.79257 6.73009C7.85132 6.76655 7.92174 6.77932 7.98956 6.76581C8.05737 6.75229 8.11752 6.71351 8.15781 6.65732C8.19811 6.60112 8.21554 6.53171 8.20658 6.46315C8.14898 6.17263 8.16416 5.87237 8.25076 5.58913C8.33736 5.3059 8.4927 5.0485 8.70292 4.83986L12.4687 1.07407C12.8026 0.737042 13.2565 0.546276 13.7309 0.543656C14.2268 0.543656 14.6489 0.721648 14.9809 1.05373C15.313 1.38581 15.4946 1.83028 15.4915 2.30374C15.4885 2.77816 15.2976 3.23205 14.9606 3.56595L11.1948 7.33175C11.005 7.52221 10.775 7.66782 10.5217 7.75792C10.2684 7.84802 9.99812 7.88034 9.73069 7.8525C9.6591 7.84536 9.58758 7.86671 9.53161 7.91192C9.47564 7.95713 9.43974 8.02257 9.43167 8.09406C9.42771 8.1296 9.43082 8.16557 9.44081 8.19991C9.45079 8.23425 9.46747 8.26628 9.48986 8.29416C9.51226 8.32204 9.53994 8.34522 9.57132 8.36237C9.6027 8.37952 9.63716 8.3903 9.67272 8.3941ZM7.71685 11.8532C8.00253 11.5711 8.21026 11.2198 8.31979 10.8336C8.42933 10.4473 8.43692 10.0393 8.34185 9.6492C8.33375 9.6143 8.31876 9.58136 8.29778 9.55232C8.2768 9.52328 8.25024 9.49871 8.21965 9.48005C8.18906 9.4614 8.15506 9.44903 8.11963 9.44366C8.08421 9.4383 8.04807 9.44006 8.01333 9.44883C7.97862 9.45718 7.9459 9.4723 7.91704 9.49331C7.88818 9.51433 7.86374 9.54082 7.84513 9.57129C7.82652 9.60176 7.8141 9.63559 7.80858 9.67086C7.80306 9.70613 7.80455 9.74215 7.81296 9.77684C7.88578 10.0765 7.87975 10.3899 7.79543 10.6865C7.71112 10.9831 7.55142 11.2528 7.33188 11.4693L3.56608 15.2351C3.23222 15.5721 2.77826 15.7629 2.30387 15.7655C2.07184 15.7695 1.84143 15.7263 1.62657 15.6386C1.41171 15.5509 1.21688 15.4206 1.05386 15.2554C0.889648 15.0917 0.759909 14.8967 0.672302 14.682C0.584695 14.4674 0.540995 14.2373 0.543784 14.0054C0.546659 13.5309 0.737376 13.0769 1.0742 12.7427L4.83999 8.9769C5.03077 8.78387 5.26298 8.6368 5.51903 8.54684C5.77508 8.45688 6.04825 8.42639 6.31783 8.45767C6.38923 8.46435 6.46045 8.44314 6.51657 8.3985C6.57269 8.35385 6.60935 8.28922 6.61889 8.21814C6.6269 8.14649 6.6062 8.07457 6.56131 8.01815C6.51641 7.96172 6.45099 7.92538 6.37937 7.91709C6.02854 7.87679 5.67314 7.91658 5.33991 8.03347C5.00669 8.15036 4.70431 8.3413 4.45553 8.59193L0.689737 12.3577C0.251586 12.7927 0.00362525 13.3835 0.000146956 14.0008C-0.00330624 14.3048 0.0541305 14.6064 0.169071 14.8878C0.284011 15.1692 0.454129 15.4248 0.669395 15.6394C1.10166 16.0716 1.67632 16.3091 2.29064 16.3091H2.30743C2.92463 16.3056 3.51529 16.0577 3.95003 15.6195L7.71685 11.8532Z" fill="#E91E63"/>
  <path d="M11.5788 4.52965C11.5535 4.50437 11.5236 4.48432 11.4906 4.47063C11.4576 4.45695 11.4222 4.44991 11.3865 4.44991C11.3508 4.44991 11.3154 4.45695 11.2825 4.47063C11.2495 4.48432 11.2195 4.50437 11.1943 4.52965L4.3289 11.395C4.30366 11.4203 4.28363 11.4503 4.26997 11.4832C4.25631 11.5162 4.24928 11.5516 4.24928 11.5873C4.24928 11.623 4.25631 11.6583 4.26997 11.6913C4.28363 11.7243 4.30366 11.7543 4.3289 11.7795C4.35414 11.8047 4.38411 11.8248 4.4171 11.8384C4.45008 11.8521 4.48543 11.8591 4.52113 11.8591C4.55683 11.8591 4.59218 11.8521 4.62517 11.8384C4.65815 11.8248 4.68812 11.8047 4.71336 11.7795L11.5788 4.91411C11.604 4.88889 11.6241 4.85893 11.6378 4.82594C11.6515 4.79295 11.6585 4.75759 11.6585 4.72188C11.6585 4.68617 11.6515 4.65081 11.6378 4.61782C11.6241 4.58484 11.604 4.55488 11.5788 4.52965Z" fill="#E91E63"/>
</svg>