<svg xmlns="http://www.w3.org/2000/svg" width="22" height="21" viewBox="0 0 22 21" fill="none">
  <path d="M11 0.997986C16.524 0.997986 21.002 5.47599 21.002 11C21.002 16.523 16.523 21 11 21C5.47599 21.001 0.997986 16.523 0.997986 11C0.997986 5.47599 5.47599 0.997986 11 0.997986ZM7.46199 13.783C7.40105 13.7056 7.32547 13.6409 7.23955 13.5927C7.15363 13.5445 7.05905 13.5137 6.96123 13.502C6.76366 13.4785 6.56483 13.5344 6.40849 13.6575C6.33107 13.7184 6.26642 13.794 6.21821 13.8799C6.17001 13.9658 6.1392 14.0604 6.12755 14.1582C6.10401 14.3558 6.15993 14.5546 6.28299 14.711C6.84417 15.4253 7.56045 16.0027 8.37765 16.3994C9.19485 16.7962 10.0916 17.0019 11 17.001C11.9071 17.0019 12.8025 16.7968 13.6188 16.4011C14.435 16.0055 15.1508 15.4296 15.712 14.717C15.7731 14.6397 15.8183 14.5511 15.8451 14.4564C15.872 14.3616 15.8799 14.2625 15.8684 14.1647C15.857 14.0668 15.8263 13.9722 15.7783 13.8862C15.7303 13.8002 15.6658 13.7246 15.5885 13.6635C15.5112 13.6024 15.4226 13.5572 15.3279 13.5303C15.2331 13.5035 15.134 13.4956 15.0362 13.507C14.9383 13.5185 14.8437 13.5491 14.7577 13.5972C14.6717 13.6452 14.5961 13.7097 14.535 13.787C14.1141 14.3219 13.5772 14.7541 12.9648 15.051C12.3524 15.348 11.6806 15.5018 11 15.501C9.60199 15.501 8.30999 14.861 7.46199 13.783ZM7.99999 7.74999C7.83292 7.74526 7.66661 7.77408 7.51088 7.83475C7.35516 7.89542 7.21318 7.9867 7.09334 8.10319C6.9735 8.21968 6.87824 8.35903 6.8132 8.51298C6.74815 8.66693 6.71463 8.83236 6.71463 8.99949C6.71463 9.16661 6.74815 9.33204 6.8132 9.48599C6.87824 9.63994 6.9735 9.77929 7.09334 9.89578C7.21318 10.0123 7.35516 10.1036 7.51088 10.1642C7.66661 10.2249 7.83292 10.2537 7.99999 10.249C8.32525 10.2398 8.63411 10.1041 8.86093 9.87078C9.08774 9.63746 9.21463 9.32488 9.21463 8.99949C9.21463 8.67409 9.08774 8.36151 8.86093 8.12819C8.63411 7.89487 8.32525 7.75919 7.99999 7.74999ZM14 7.74999C13.8329 7.74526 13.6666 7.77408 13.5109 7.83475C13.3552 7.89542 13.2132 7.9867 13.0933 8.10319C12.9735 8.21968 12.8782 8.35903 12.8132 8.51298C12.7481 8.66693 12.7146 8.83236 12.7146 8.99949C12.7146 9.16661 12.7481 9.33204 12.8132 9.48599C12.8782 9.63994 12.9735 9.77929 13.0933 9.89578C13.2132 10.0123 13.3552 10.1036 13.5109 10.1642C13.6666 10.2249 13.8329 10.2537 14 10.249C14.3253 10.2398 14.6341 10.1041 14.8609 9.87078C15.0877 9.63746 15.2146 9.32488 15.2146 8.99949C15.2146 8.67409 15.0877 8.36151 14.8609 8.12819C14.6341 7.89487 14.3253 7.75919 14 7.74999Z" fill="#555555"/>
</svg>