<svg xmlns="http://www.w3.org/2000/svg" width="22" height="22" viewBox="0 0 22 22" fill="none">
  <path d="M13.0625 9.625C13.4704 9.625 13.8692 9.50404 14.2084 9.27741C14.5475 9.05078 14.8119 8.72866 14.968 8.35179C15.1241 7.97491 15.165 7.56021 15.0854 7.16013C15.0058 6.76004 14.8094 6.39254 14.5209 6.10409C14.2325 5.81565 13.865 5.61921 13.4649 5.53963C13.0648 5.46005 12.6501 5.50089 12.2732 5.657C11.8963 5.81311 11.5742 6.07746 11.3476 6.41664C11.121 6.75581 11 7.15458 11 7.5625C11 8.10951 11.2173 8.63412 11.6041 9.02091C11.9909 9.4077 12.5155 9.625 13.0625 9.625ZM13.0625 6.875C13.1985 6.875 13.3314 6.91532 13.4445 6.99087C13.5575 7.06641 13.6456 7.17378 13.6977 7.29941C13.7497 7.42503 13.7633 7.56326 13.7368 7.69663C13.7103 7.82999 13.6448 7.95249 13.5486 8.04864C13.4525 8.14479 13.33 8.21026 13.1966 8.23679C13.0633 8.26332 12.925 8.2497 12.7994 8.19767C12.6738 8.14563 12.5664 8.05751 12.4909 7.94446C12.4153 7.8314 12.375 7.69848 12.375 7.5625C12.375 7.38016 12.4474 7.2053 12.5764 7.07637C12.7053 6.94743 12.8802 6.875 13.0625 6.875Z" fill="#E91E63"/>
  <path d="M17.875 2.75H4.125C3.76033 2.75 3.41059 2.89487 3.15273 3.15273C2.89487 3.41059 2.75 3.76033 2.75 4.125V17.875C2.75 18.2397 2.89487 18.5894 3.15273 18.8473C3.41059 19.1051 3.76033 19.25 4.125 19.25H17.875C18.2397 19.25 18.5894 19.1051 18.8473 18.8473C19.1051 18.5894 19.25 18.2397 19.25 17.875V4.125C19.25 3.76033 19.1051 3.41059 18.8473 3.15273C18.5894 2.89487 18.2397 2.75 17.875 2.75ZM17.875 17.875H4.125V13.75L7.5625 10.3125L11.4056 14.1556C11.6632 14.4117 12.0117 14.5555 12.375 14.5555C12.7383 14.5555 13.0868 14.4117 13.3444 14.1556L14.4375 13.0625L17.875 16.5V17.875ZM17.875 14.5544L15.4069 12.0863C15.1493 11.8302 14.8008 11.6864 14.4375 11.6864C14.0742 11.6864 13.7257 11.8302 13.4681 12.0863L12.375 13.1794L8.53187 9.33625C8.27425 9.08015 7.92576 8.93641 7.5625 8.93641C7.19924 8.93641 6.85075 9.08015 6.59313 9.33625L4.125 11.8044V4.125H17.875V14.5544Z" fill="#E91E63"/>
</svg>