<svg xmlns="http://www.w3.org/2000/svg" width="16" height="16" viewBox="0 0 16 16" fill="none">
  <g clip-path="url(#clip0_10_48)">
    <rect width="16" height="16" fill="white"/>
    <path d="M14.2 14C14.8 13.5 16 12.4 16 10.8C16 9.4 14.8 8.2 13.2 7.5C13.7 6.9 14 6 14 5.1C14 2.3 11.1 0 7.4 0C3.9 0 0 2.1 0 5.1C0 7.2 1.6 8.7 2.3 9.3C2.2 10.5 1.7 11 1.7 11L0.5 12H2C3.2 12 4.2 11.7 5 11.3C5.3 13.2 7.5 14.7 10.3 14.7H10.8C11.4 15.2 12.6 16 14.3 16H15.7L14.6 15.1C14.6 15.1 14.3 14.8 14.2 14ZM10.3 13.7C8 13.7 6 12.4 6 10.9V10.7C6.2 10.5 6.4 10.4 6.5 10.2H7.2C9.3 10.2 11.2 9.5 12.4 8.3C13.9 8.8 15 9.8 15 10.8C15 11.8 14.1 12.8 13.3 13.3L13 13.5V13.8C13 14.3 13.2 14.6 13.3 14.9C12.3 14.7 11.6 14.2 11.4 13.9L11.3 13.7H10.3ZM7.4 1C10.5 1 13 2.9 13 5.1C13 7.3 10.4 9.2 7.2 9.2H6.1L6 9.4C5.7 9.8 4.5 10.6 2.9 10.9C3 10.5 3 9.9 3 9.1V8.8C2 8 0.9 6.6 0.9 5.2C0.9 3 4.1 1 7.4 1Z" fill="black"/>
  </g>
  <defs>
    <clipPath id="clip0_10_48">
      <rect width="16" height="16" fill="white"/>
    </clipPath>
  </defs>
</svg>